<?xml version="1.0" standalone="no"?>
<!DOCTYPE svg PUBLIC "-//W3C//DTD SVG 20010904//EN"
 "http://www.w3.org/TR/2001/REC-SVG-20010904/DTD/svg10.dtd">
<svg version="1.0" xmlns="http://www.w3.org/2000/svg"
 width="64" height="64" viewBox="0 0 316.000000 352.000000"
 preserveAspectRatio="xMidYMid meet">

<g transform="translate(0.000000,352.000000) scale(0.100000,-0.100000)"
fill="#FFFFFF" stroke="none">
<path d="M2430 3244 c-118 -90 -263 -201 -323 -246 l-107 -81 -348 -2 c-368
-1 -466 -11 -695 -64 l-89 -21 -56 35 c-32 19 -180 116 -330 215 -210 138
-270 173 -255 151 10 -17 88 -133 174 -258 86 -125 159 -233 163 -240 4 -8
-22 -26 -80 -53 -103 -50 -167 -109 -185 -172 -17 -58 -18 -400 -1 -538 38
-314 118 -590 251 -874 28 -59 48 -112 45 -117 -3 -5 -14 -9 -24 -9 -26 0
-198 -71 -330 -136 -116 -57 -137 -79 -126 -137 10 -52 48 -82 104 -82 40 0
60 8 131 54 105 67 190 106 267 122 88 18 102 11 169 -83 162 -226 365 -422
590 -571 121 -80 163 -97 238 -97 133 0 303 117 623 425 52 51 150 168 217
261 20 28 51 57 68 64 65 27 211 -23 389 -134 41 -25 86 -46 102 -46 84 0 144
94 98 153 -32 41 -391 207 -447 207 -16 0 -32 3 -36 6 -3 3 6 32 20 63 124
272 166 384 213 570 60 240 85 464 78 713 -5 184 -17 229 -79 283 -70 61 -314
172 -477 216 -42 12 -81 25 -86 30 -10 9 19 53 253 397 61 89 108 162 104 161
-5 0 -105 -74 -223 -165z m-195 -313 c-52 -77 -95 -142 -95 -146 0 -4 14 -25
31 -47 18 -21 28 -43 23 -47 -5 -4 -46 -40 -92 -80 l-82 -73 36 -40 c45 -50
91 -148 104 -219 15 -88 30 -222 30 -270 0 -98 -53 -213 -130 -283 -75 -67
-85 -71 -186 -68 l-92 4 -6 -56 c-6 -45 -11 -56 -25 -56 -14 0 -21 14 -31 60
l-13 60 -97 0 -98 0 -12 -50 c-7 -27 -15 -50 -18 -50 -35 1 -50 15 -56 51 l-6
39 -78 0 c-76 0 -79 1 -196 64 -139 76 -158 92 -193 164 -25 50 -26 59 -20
160 7 123 33 227 82 326 l34 69 -32 38 c-32 37 -33 37 -109 38 -42 1 -84 4
-92 7 -9 4 -56 63 -104 133 -49 69 -119 171 -157 225 -38 55 -63 96 -55 91 8
-5 106 -69 218 -142 l203 -133 62 0 61 0 67 -66 67 -66 43 25 c70 40 182 76
280 89 107 14 244 1 333 -32 l55 -21 63 42 c35 23 65 43 66 45 2 1 -8 20 -22
40 -25 37 -25 39 -8 56 17 17 334 258 340 258 1 0 -40 -63 -93 -139z m-782
-176 c-82 -15 -161 -39 -217 -67 l-39 -20 -30 30 -30 31 25 6 c46 12 241 33
303 33 l60 0 -72 -13z m431 -4 c29 -25 2 -33 -50 -16 -27 8 -76 20 -109 25
-56 8 -53 9 41 7 69 -2 107 -7 118 -16z m576 -118 c122 -46 279 -124 305 -153
19 -21 20 -36 20 -229 -1 -200 -9 -302 -41 -466 -21 -110 -75 -305 -84 -305
-4 0 -23 7 -43 15 -35 14 -35 14 -47 -16 -16 -37 -24 -32 -10 6 6 15 9 30 6
32 -8 9 -201 63 -223 63 -12 0 -35 -11 -51 -25 l-30 -25 8 35 c9 39 12 37 -85
55 -101 19 -98 16 -52 60 23 21 57 62 74 92 42 69 77 206 70 267 -4 25 -13
101 -22 168 -16 128 -37 196 -85 274 l-28 45 87 77 c98 88 82 85 231 30z
m-1749 -123 l54 -80 91 0 92 0 -30 -72 c-67 -160 -89 -383 -48 -491 31 -81
103 -151 207 -201 78 -38 81 -41 67 -60 -8 -11 -14 -36 -15 -56 l-1 -35 -8 29
c-21 69 -64 84 -168 61 -122 -28 -145 -63 -118 -179 19 -81 19 -77 1 -70 -9 4
-15 19 -15 38 0 49 -40 118 -76 132 -26 11 -40 9 -100 -12 -38 -14 -73 -26
-78 -27 -24 -5 -94 293 -117 493 -6 58 -12 187 -12 287 0 153 3 186 17 207 13
21 172 113 197 115 3 1 30 -35 60 -79z m689 -915 c0 -25 0 -48 0 -52 0 -5 -18
-9 -40 -11 -23 -2 -40 1 -40 7 0 6 -13 11 -30 11 -29 0 -30 -1 -25 -42 2 -24
7 -69 10 -100 6 -53 9 -58 31 -58 21 0 24 5 24 35 0 24 -5 35 -14 35 -13 0
-34 56 -24 65 1 1 30 4 63 6 l60 4 8 -99 c5 -54 5 -102 0 -106 -4 -4 -51 -11
-103 -15 -88 -6 -97 -5 -114 14 -20 22 -34 121 -35 237 -1 82 11 92 125 103
49 4 92 9 97 10 4 0 7 -19 7 -44z m309 -91 c15 -86 29 -138 38 -141 7 -3 13
-20 13 -39 l0 -34 -59 0 -60 0 -3 38 c-3 32 -7 37 -30 40 -23 3 -27 -1 -33
-37 l-7 -41 -54 0 -54 0 0 40 c0 26 5 40 13 40 11 0 22 46 54 238 l5 32 77 0
77 0 23 -136z m273 120 l66 -6 -6 -37 c-3 -23 -30 -68 -74 -127 -37 -50 -68
-94 -68 -97 0 -4 11 -7 25 -7 16 0 25 6 25 15 0 11 11 15 41 15 41 0 41 0 35
-31 -3 -17 -6 -43 -6 -56 l0 -25 -97 7 c-140 10 -143 11 -143 52 0 27 14 53
70 125 38 50 67 95 64 100 -9 14 -34 9 -34 -7 0 -13 -7 -15 -37 -9 -21 4 -39
8 -41 9 -1 1 1 23 4 49 l7 48 51 -6 c28 -3 81 -8 118 -12z m221 -41 c33 -5 38
-9 33 -27 -3 -12 -6 -29 -6 -38 0 -10 -6 -18 -14 -18 -17 0 -53 -177 -39 -191
12 -12 3 -79 -11 -79 -6 1 -38 7 -71 13 -58 13 -60 14 -57 42 2 17 10 35 19
42 19 15 55 184 42 198 -11 11 -12 59 -2 69 5 4 21 5 38 1 16 -3 47 -8 68 -12z
m-1148 -5 c28 -13 41 -48 72 -202 l18 -88 -27 -23 c-27 -23 -104 -45 -158 -45
-20 0 -35 8 -45 23 -20 31 -68 245 -60 274 6 27 32 42 100 58 66 17 70 17 100
3z m1384 -52 c45 -13 84 -26 87 -28 2 -3 -3 -28 -12 -57 -13 -44 -18 -51 -35
-47 -10 4 -28 9 -40 12 -14 4 -19 12 -16 25 4 14 -1 21 -19 25 -14 4 -26 5
-28 3 -1 -2 -14 -44 -29 -94 -20 -68 -23 -91 -14 -97 22 -14 37 -8 47 16 8 23
12 24 47 14 21 -5 39 -11 41 -13 3 -3 -28 -114 -34 -123 -1 -2 -44 9 -94 24
-132 40 -133 41 -85 205 37 125 56 159 90 159 6 0 48 -11 94 -24z m-1674 -50
c22 -34 30 -93 15 -111 -10 -12 -10 -15 2 -15 24 0 56 -42 70 -94 12 -45 12
-49 -9 -66 -21 -17 -193 -90 -212 -90 -14 0 -33 63 -21 70 14 9 -60 192 -76
186 -11 -4 -34 33 -34 57 0 16 176 86 217 86 24 1 37 -6 48 -23z m1300 -23
c-4 -27 -8 -50 -10 -52 -2 -2 -20 1 -40 5 l-36 9 31 43 c44 59 64 57 55 -5z
m-596 8 c-2 -25 -17 -68 -18 -50 -1 9 -4 31 -7 48 -6 26 -4 30 10 25 9 -3 16
-14 15 -23z m335 -18 c-15 -21 -29 -40 -31 -43 -6 -7 -23 23 -23 42 0 10 13
20 38 26 20 5 39 10 41 11 2 1 -9 -16 -25 -36z m427 -24 c-9 -23 -10 -23 -10
-2 -1 12 2 30 6 40 6 15 8 15 11 2 1 -8 -2 -26 -7 -40z m464 10 c17 -7 31 -14
33 -15 8 -5 -29 -74 -38 -72 -15 4 -95 -175 -81 -180 9 -3 -8 -50 -24 -70 -2
-2 -115 47 -124 54 -9 8 22 63 37 66 20 4 94 169 82 183 -5 6 -2 24 5 43 16
36 7 37 110 -9z m-240 -58 c55 -17 60 -17 71 -2 21 28 26 5 7 -33 -9 -20 -22
-35 -27 -33 -6 3 -37 13 -68 23 -40 12 -58 23 -58 34 0 13 9 31 14 30 1 0 28
-9 61 -19z m-777 -111 c87 0 301 -24 421 -46 58 -11 95 -13 100 -7 3 5 20 0
40 -14 39 -26 28 -29 -46 -9 l-51 14 -16 -57 -15 -56 6 57 5 56 -43 6 c-24 3
-93 10 -154 16 -60 5 -131 13 -157 16 -42 5 -48 3 -48 -12 0 -17 -1 -17 -13 0
-10 14 -23 16 -72 12 -33 -3 -79 -5 -102 -5 l-43 -1 0 -69 c0 -52 4 -70 15
-75 10 -4 15 -20 15 -51 l0 -45 -42 0 c-24 0 -60 -3 -80 -6 l-38 -7 0 51 c0
28 5 52 11 54 8 3 9 26 4 77 -7 68 -9 72 -29 67 -11 -2 -60 -8 -108 -12 l-88
-7 0 -56 0 -56 -15 29 c-32 61 -73 68 -212 37 l-83 -19 25 30 c14 16 25 34 25
39 0 6 10 3 22 -5 27 -19 77 -20 143 -2 67 17 92 32 100 56 6 19 7 19 35 -2
29 -21 32 -21 192 -9 90 7 174 13 188 14 20 2 26 9 30 32 l4 30 4 -32 3 -33
67 0z m260 -71 l142 -12 0 -42 c0 -24 -3 -57 -6 -74 -6 -30 -9 -32 -43 -29
-34 3 -36 5 -33 36 3 26 0 32 -16 32 -21 0 -21 0 -38 -167 -6 -56 -5 -63 11
-63 12 0 15 -5 11 -16 -3 -9 -6 -27 -6 -40 0 -21 -5 -24 -34 -24 -18 0 -54 3
-80 6 l-46 7 0 44 c0 35 3 44 14 40 15 -6 18 8 31 156 6 63 5 67 -14 67 -17 0
-21 -6 -21 -31 0 -31 -1 -31 -37 -24 -21 4 -39 8 -41 10 -2 2 0 35 4 75 7 70
7 71 33 66 14 -3 90 -10 169 -17z m-258 -28 c0 -22 -4 -41 -9 -43 -15 -5 -17
-221 -3 -226 7 -2 12 -23 12 -48 l0 -45 -77 3 -78 3 -3 43 c-3 34 0 42 14 42
15 0 16 11 11 112 -3 66 -10 114 -16 116 -6 2 -11 21 -11 43 l0 39 80 0 80 0
0 -39z m-332 -13 c2 -22 -1 -38 -7 -38 -13 0 -14 -44 -5 -153 7 -74 8 -77 32
-77 22 0 24 3 19 34 -6 38 6 46 69 46 l31 0 6 -72 c3 -40 4 -75 1 -77 -7 -7
-267 -30 -276 -24 -13 7 -9 81 3 85 14 5 -1 219 -15 217 -14 -1 -26 24 -26 58
0 28 3 32 33 36 17 2 55 4 82 3 l50 -1 3 -37z m959 16 c-3 -3 -12 -4 -19 -1
-8 3 -5 6 6 6 11 1 17 -2 13 -5z m-30 -30 c159 -37 146 -30 138 -72 -5 -29
-27 -58 -101 -132 -52 -53 -94 -98 -94 -102 0 -3 11 -8 25 -10 18 -4 26 0 31
14 5 16 12 18 37 13 47 -10 50 -17 36 -80 -11 -49 -15 -56 -33 -51 -12 3 -72
17 -134 32 l-114 26 7 37 c5 28 28 57 107 137 94 95 98 102 74 106 -16 3 -27
0 -30 -9 -5 -11 -15 -13 -38 -8 -18 4 -36 10 -41 14 -6 6 11 111 19 111 1 0
51 -12 111 -26z m-1181 -10 c25 -37 30 -116 10 -133 -15 -13 -14 -16 14 -40
22 -19 33 -39 39 -75 17 -91 2 -104 -166 -140 -124 -26 -113 -29 -127 37 -5
21 -3 27 9 27 11 0 15 6 11 18 -3 9 -12 49 -21 87 -8 39 -17 80 -20 93 -3 12
-12 22 -19 22 -14 0 -26 29 -26 65 0 18 13 23 98 42 139 30 177 29 198 -3z
m-317 -80 c10 -47 17 -64 27 -60 7 3 15 -3 18 -12 11 -43 16 -72 12 -72 -11 0
-117 191 -111 200 3 6 14 10 24 10 13 0 20 -15 30 -66z m1709 57 c17 -10 5
-35 -71 -158 -47 -75 -54 -82 -77 -76 -14 3 -27 8 -29 10 -3 2 25 34 61 71 52
52 68 76 74 107 10 58 15 64 42 46z m-1314 -41 c9 0 15 -24 20 -76 4 -42 5
-79 2 -81 -12 -12 -40 77 -41 132 -1 33 0 52 3 43 2 -10 9 -18 16 -18z m526 0
c0 -25 4 -30 24 -30 13 0 38 -3 55 -6 29 -6 31 -9 31 -49 0 -30 -5 -47 -19
-56 -14 -11 -20 -30 -24 -80 l-4 -66 110 -12 c61 -6 111 -10 112 -8 2 1 6 35
9 75 6 63 5 72 -9 72 -12 0 -15 5 -11 16 3 9 6 32 6 51 l0 35 60 -4 c48 -3 60
-1 60 10 0 11 9 13 42 8 23 -4 45 -9 48 -12 3 -3 -26 -33 -63 -67 -62 -57 -69
-67 -82 -122 -7 -33 -12 -62 -10 -64 2 -2 19 -7 37 -11 31 -7 19 -14 -206
-123 -131 -65 -244 -117 -251 -117 -7 0 -109 48 -226 106 -118 59 -225 111
-238 116 l-25 9 29 19 c19 13 32 16 36 9 5 -8 41 -8 125 0 66 7 181 12 257 13
l137 1 0 72 c0 56 -4 74 -15 79 -12 4 -15 24 -15 86 0 47 4 80 10 80 6 0 10
-13 10 -30z m-980 -176 c108 -52 115 -57 115 -85 0 -16 -1 -29 -3 -29 -1 0
-29 14 -62 30 -35 18 -75 30 -98 30 -78 0 -207 -52 -358 -146 -39 -24 -82 -44
-95 -44 -50 0 -96 72 -68 106 26 32 384 194 429 194 14 0 77 -25 140 -56z
m2058 15 c150 -64 309 -146 315 -163 14 -36 -32 -96 -73 -96 -14 0 -58 20 -97
44 -145 91 -280 146 -355 146 -24 0 -69 -14 -115 -35 l-75 -35 7 28 c3 15 12
32 18 39 20 19 230 113 255 113 13 0 67 -19 120 -41z m-1414 -326 c456 -224
501 -247 501 -262 0 -44 -32 -31 -455 178 -234 115 -418 212 -410 214 8 3 22
8 30 10 8 3 19 6 24 6 5 1 144 -65 310 -146z m865 128 c13 -8 -113 -74 -415
-216 -86 -41 -91 -42 -119 -27 l-29 15 240 117 c234 116 287 134 323 111z
m-1064 -132 c44 -23 129 -66 190 -96 l109 -55 -39 -19 c-21 -10 -46 -26 -55
-34 -24 -22 -36 -19 -83 17 -55 42 -183 165 -208 201 -28 38 -9 35 86 -14z
m881 -75 c-150 -145 -141 -141 -210 -107 -31 15 -56 30 -55 33 0 6 350 179
364 179 6 0 -39 -47 -99 -105z m-501 -118 c17 -12 15 -15 -26 -39 -102 -59
-149 -70 -149 -35 0 21 12 32 70 60 64 31 79 33 105 14z m146 -72 c82 -41 81
-45 -15 -93 l-64 -33 -43 20 c-24 11 -57 31 -72 44 l-28 23 68 37 c37 21 71
38 76 38 4 0 39 -16 78 -36z"/>
<path d="M1387 2162 c-18 -20 -47 -95 -47 -122 0 -14 17 -24 65 -40 36 -12 72
-20 79 -17 12 5 43 135 34 142 -20 16 -91 55 -101 55 -8 0 -21 -8 -30 -18z"/>
<path d="M1915 2169 c-5 -5 -20 -17 -31 -27 -17 -13 -23 -32 -28 -80 -7 -74 2
-82 66 -61 55 18 68 33 68 80 0 71 -42 120 -75 88z"/>
<path d="M1600 1524 c0 -12 -3 -36 -6 -53 -6 -27 -4 -31 14 -31 18 0 20 4 15
38 -7 47 -22 77 -23 46z"/>
<path d="M972 1502 c-19 -3 -23 -8 -19 -25 3 -12 13 -57 22 -99 16 -75 25 -87
53 -70 10 7 9 27 -8 103 -12 51 -22 94 -23 94 -1 0 -13 -1 -25 -3z"/>
<path d="M651 1401 c-12 -8 -13 -14 -3 -35 13 -29 21 -32 44 -13 12 9 14 18 7
35 -9 23 -25 28 -48 13z"/>
<path d="M701 1281 c-21 -13 0 -67 25 -63 30 6 36 17 23 45 -13 28 -25 33 -48
18z"/>
<path d="M968 1053 c-19 -5 -21 -15 -12 -50 6 -23 28 -29 52 -15 8 6 10 19 6
40 -6 31 -12 34 -46 25z"/>
<path d="M1001 913 c-20 -4 -22 -9 -17 -35 3 -17 6 -34 6 -39 0 -13 48 -11 55
2 8 13 -3 80 -13 78 -4 -1 -18 -4 -31 -6z"/>
<path d="M1426 724 c-11 -29 -6 -54 11 -54 15 0 15 -1 0 -18 -10 -10 -17 -26
-17 -35 0 -15 20 -16 179 -16 130 -1 182 3 189 12 6 7 10 38 10 69 l-1 58
-182 0 c-156 -1 -184 -3 -189 -16z m84 -6 c0 -9 3 -9 12 0 7 7 27 12 45 12
l34 0 -3 -57 -3 -58 -82 -2 c-90 -3 -101 5 -58 39 14 11 25 29 25 41 0 20 0
20 -14 1 -11 -15 -17 -16 -27 -7 -21 21 -2 43 36 43 20 0 35 -5 35 -12z m188
-16 c2 -13 -4 -32 -13 -42 -16 -17 -15 -18 22 -17 37 2 39 4 39 35 0 21 -3 29
-10 22 -16 -16 -26 -12 -26 10 0 17 7 20 38 20 l39 0 1 -47 c0 -27 -4 -54 -10
-60 -13 -16 -50 -17 -65 -2 -8 8 -13 8 -17 0 -8 -13 -86 -15 -86 -3 0 5 11 19
25 32 14 13 25 33 25 44 -1 19 -2 19 -11 4 -13 -24 -39 -23 -39 0 0 27 10 33
50 30 28 -2 36 -8 38 -26z"/>
<path d="M1557 703 c-11 -10 -8 -63 3 -63 6 0 10 16 10 35 0 36 -2 40 -13 28z"/>
<path d="M1503 661 c-10 -15 -9 -20 2 -25 11 -4 15 2 15 19 0 30 -2 31 -17 6z"/>
</g>
</svg>
